<?xml version="1.0" encoding="UTF-8" standalone="no"?>
<!-- Created with Inkscape (http://www.inkscape.org/) -->

<svg
   version="1.1"
   id="svg2142"
   xml:space="preserve"
   width="463.80112"
   height="183.50453"
   viewBox="0 0 463.80112 183.50453"
   sodipodi:docname="rudolf-duck-UF.svg"
   inkscape:version="1.1 (c4e8f9e, 2021-05-24)"
   xmlns:inkscape="http://www.inkscape.org/namespaces/inkscape"
   xmlns:sodipodi="http://sodipodi.sourceforge.net/DTD/sodipodi-0.dtd"
   xmlns="http://www.w3.org/2000/svg"
   xmlns:svg="http://www.w3.org/2000/svg"><defs
     id="defs2146"><clipPath
       clipPathUnits="userSpaceOnUse"
       id="clipPath2708"><path
         d="M 0,0 H 260.999 V 190.33 H 0 Z"
         id="path2706" /></clipPath><clipPath
       clipPathUnits="userSpaceOnUse"
       id="clipPath2718"><path
         d="M 0,0 H 261 V 196 H 0 Z"
         id="path2716" /></clipPath><clipPath
       clipPathUnits="userSpaceOnUse"
       id="clipPath2744"><path
         d="M 0,0 H 237.999 V 187.496 H 0 Z"
         id="path2742" /></clipPath><clipPath
       clipPathUnits="userSpaceOnUse"
       id="clipPath2754"><path
         d="M 0,0 H 238 V 196 H 0 Z"
         id="path2752" /></clipPath><clipPath
       clipPathUnits="userSpaceOnUse"
       id="clipPath2860"><path
         d="M 0,0 H 260.999 V 190.33 H 0 Z"
         id="path2858" /></clipPath><clipPath
       clipPathUnits="userSpaceOnUse"
       id="clipPath2870"><path
         d="M 0,0 H 261 V 196 H 0 Z"
         id="path2868" /></clipPath><clipPath
       clipPathUnits="userSpaceOnUse"
       id="clipPath2896"><path
         d="M 0,0 H 237.999 V 187.496 H 0 Z"
         id="path2894" /></clipPath><clipPath
       clipPathUnits="userSpaceOnUse"
       id="clipPath2906"><path
         d="M 0,0 H 238 V 196 H 0 Z"
         id="path2904" /></clipPath><clipPath
       clipPathUnits="userSpaceOnUse"
       id="clipPath3012"><path
         d="M 0,0 H 260.999 V 190.33 H 0 Z"
         id="path3010" /></clipPath><clipPath
       clipPathUnits="userSpaceOnUse"
       id="clipPath3022"><path
         d="M 0,0 H 261 V 196 H 0 Z"
         id="path3020" /></clipPath><clipPath
       clipPathUnits="userSpaceOnUse"
       id="clipPath3048"><path
         d="M 0,0 H 237.999 V 187.496 H 0 Z"
         id="path3046" /></clipPath><clipPath
       clipPathUnits="userSpaceOnUse"
       id="clipPath3058"><path
         d="M 0,0 H 238 V 196 H 0 Z"
         id="path3056" /></clipPath><clipPath
       clipPathUnits="userSpaceOnUse"
       id="clipPath3164"><path
         d="M 0,0 H 260.999 V 190.33 H 0 Z"
         id="path3162" /></clipPath><clipPath
       clipPathUnits="userSpaceOnUse"
       id="clipPath3174"><path
         d="M 0,0 H 261 V 196 H 0 Z"
         id="path3172" /></clipPath><clipPath
       clipPathUnits="userSpaceOnUse"
       id="clipPath3200"><path
         d="M 0,0 H 237.999 V 187.496 H 0 Z"
         id="path3198" /></clipPath><clipPath
       clipPathUnits="userSpaceOnUse"
       id="clipPath3210"><path
         d="M 0,0 H 238 V 196 H 0 Z"
         id="path3208" /></clipPath></defs><sodipodi:namedview
     id="namedview2144"
     pagecolor="#ffffff"
     bordercolor="#666666"
     borderopacity="1.0"
     inkscape:pageshadow="2"
     inkscape:pageopacity="0.0"
     inkscape:pagecheckerboard="0"
     showgrid="false"
     lock-margins="true"
     fit-margin-top="10"
     fit-margin-left="10"
     fit-margin-right="10"
     fit-margin-bottom="10"
     inkscape:zoom="1.7225477"
     inkscape:cx="309.42539"
     inkscape:cy="32.219717"
     inkscape:window-width="1345"
     inkscape:window-height="847"
     inkscape:window-x="0"
     inkscape:window-y="25"
     inkscape:window-maximized="0"
     inkscape:current-layer="g2148" /><g
     id="g2148"
     inkscape:groupmode="layer"
     inkscape:label="rudolf-duck-UF"
     transform="matrix(1.3333333,0,0,-1.3333333,-11.458039,203.06778)"><g
       id="g2654"
       transform="translate(14.173,19.05)"><g
         id="g2656" /><g
         id="g2658" /><g
         id="g2660" /><g
         id="g2662" /><g
         id="g2664"><path
           d="M 62.73141,80.6467 C 55.75804,79.42781 44.64615,66.81326 56.38174,55.58804 68.1455,44.36284 129.34659,51.87471 99.72379,88.41379 74.77888,75.00554 83.33969,87.27968 62.73141,80.6467 Z"
           style="fill:#edd425;fill-opacity:1;fill-rule:nonzero;stroke:none"
           id="path2666" /></g><g
         id="g2668"><path
           d="m 87.87483,90.7097 c 0,9.7848 -6.34555,17.71675 -14.1734,17.71675 -7.82785,0 -14.1734,-7.93195 -14.1734,-17.71675 0,-9.78482 6.34555,-17.71675 14.1734,-17.71675 7.82785,0 14.1734,7.93193 14.1734,17.71675 z"
           style="fill:#edd425;fill-opacity:1;fill-rule:nonzero;stroke:none"
           id="path2670" /></g><g
         id="g2672"><path
           d="M 59.69846,89.91599 C 66.41663,91.56006 63.52512,85.1252 73.98518,87.02448 50.54205,72.28444 55.8147,86.99635 59.69846,89.91599 Z"
           style="fill:#df8020;fill-opacity:1;fill-rule:nonzero;stroke:none"
           id="path2674" /></g><g
         id="g2676"><path
           d="m 73.83105,92.17557 c 0.66932,1.83893 0.14699,3.71725 -1.16665,4.19537 -1.31365,0.47812 -2.92114,-0.625 -3.59047,-2.46393 -0.66931,-1.83894 -0.14699,-3.71727 1.16667,-4.19539 1.31364,-0.47812 2.92114,0.625 3.59045,2.46395 z"
           style="fill:#fffdd9;fill-opacity:1;fill-rule:nonzero;stroke:none"
           id="path2678" /></g><g
         id="g2680"><path
           d="m 73.10577,92.13803 c 0.38228,1.05034 0.26638,2.05677 -0.25891,2.24794 -0.52526,0.19118 -1.261,-0.50528 -1.64328,-1.55562 -0.38228,-1.05034 -0.26637,-2.05676 0.2589,-2.24794 0.52528,-0.19117 1.26102,0.50528 1.64329,1.55562 z"
           style="fill:#000000;fill-opacity:1;fill-rule:nonzero;stroke:none"
           id="path2682" /></g><g
         id="g2684"><path
           d="m 65.5549,94.35838 c 0.61205,1.68158 0.17085,3.38593 -0.98543,3.80678 -1.15629,0.42085 -2.58981,-0.60113 -3.20186,-2.28271 -0.61204,-1.68158 -0.17085,-3.38593 0.98543,-3.80678 1.1563,-0.42085 2.58982,0.60113 3.20186,2.28271 z"
           style="fill:#fffdd9;fill-opacity:1;fill-rule:nonzero;stroke:none"
           id="path2686" /></g><g
         id="g2688"><path
           d="m 64.92499,94.28572 c 0.34428,0.94594 0.28238,1.8369 -0.13829,1.98999 -0.42067,0.15311 -1.04079,-0.48961 -1.38507,-1.43555 -0.3443,-0.94593 -0.2824,-1.83689 0.13827,-1.99 0.42067,-0.15309 1.04079,0.48961 1.38509,1.43556 z"
           style="fill:#000000;fill-opacity:1;fill-rule:nonzero;stroke:none"
           id="path2690" /></g></g><g
       id="g2692"
       transform="translate(14.173,19.05)"
       style="fill:#a0522d"><g
         id="g2694"
         transform="translate(71.065,105.081)"
         style="fill:#a0522d"><g
           id="g2696"
           style="fill:#a0522d"><g
             id="g2698"
             transform="scale(0.1086)"
             style="fill:#a0522d"><g
               id="g2700"
               style="fill:#a0522d"><g
                 id="g2702"
                 style="fill:#a0522d"><g
                   id="g2704"
                   clip-path="url(#clipPath2708)"
                   style="fill:#a0522d"><g
                     id="g2710"
                     style="fill:#a0522d"><g
                       id="g2712"
                       style="fill:#a0522d"><g
                         id="g2714"
                         clip-path="url(#clipPath2718)"
                         style="fill:#a0522d"><g
                           id="g2720"
                           transform="scale(0.1)"
                           style="fill:#a0522d"><path
                             d="m 653,1953 c 362,-2 952,-2 1310,0 359,1 63,2 -658,2 -721,0 -1014,-1 -652,-2 z"
                             style="fill:#a0522d;fill-opacity:1;fill-rule:nonzero;stroke:none"
                             id="path2722" /><path
                             d="m 1162,1789 c -27,-10 -53,-66 -77,-159 -17,-70 -62,-161 -82,-168 -17,-5 -40,55 -65,164 -11,50 -28,101 -37,113 -33,44 -167,35 -193,-12 -7,-13 -12,-59 -11,-117 2,-158 48,-249 228,-455 174,-198 246,-309 248,-382 1,-44 -34,-86 -177,-209 C 814,407 806,406 796,548 787,663 775,704 744,725 703,752 663,747 628,712 599,684 596,675 589,583 585,529 581,408 580,313 V 142 L 503,71 425,0 h 186 186 l 66,50 c 112,85 136,94 230,87 91,-6 209,-34 305,-72 79,-32 122,-32 150,-2 56,59 0,123 -198,227 -68,36 -126,70 -128,77 -4,15 156,176 215,216 68,47 152,49 192,5 11,-11 49,-80 85,-152 101,-206 175,-274 285,-263 64,7 105,33 109,71 3,27 -4,46 -71,166 -20,36 -37,73 -37,83 0,27 41,37 154,37 h 104 l 35,39 c 41,46 67,92 67,119 0,29 -39,58 -125,93 -75,30 -90,33 -237,38 -99,4 -161,10 -169,18 -25,25 107,69 456,149 88,20 177,45 198,56 101,51 77,188 -38,212 -31,6 -77,0 -235,-33 -52,-11 -104,-18 -116,-15 -32,8 -54,62 -54,131 0,66 15,125 66,256 37,95 36,108 -11,146 -68,53 -127,36 -176,-50 -20,-37 -39,-59 -48,-57 -8,2 -35,32 -60,67 -54,75 -96,101 -166,101 -69,0 -95,-20 -95,-71 0,-63 41,-135 161,-284 76,-94 91,-127 97,-210 6,-94 -3,-103 -158,-161 -224,-83 -205,-79 -241,-56 -66,42 -199,158 -205,179 -4,14 8,57 30,115 37,96 70,224 82,314 9,76 -22,127 -96,157 -23,10 -43,12 -58,6 z"
                             style="fill:#a0522d;fill-opacity:1;fill-rule:nonzero;stroke:none"
                             id="path2724" /></g></g></g></g></g></g></g></g></g><g
           id="g2726"
           transform="translate(-71.065,-105.081)"
           style="fill:#a0522d" /></g></g><g
       id="g2728"
       transform="translate(14.173,19.05)"
       style="fill:#a0522d"><g
         id="g2730"
         transform="translate(48.388,105.081)"
         style="fill:#a0522d"><g
           id="g2732"
           style="fill:#a0522d"><g
             id="g2734"
             transform="scale(0.10718)"
             style="fill:#a0522d"><g
               id="g2736"
               style="fill:#a0522d"><g
                 id="g2738"
                 style="fill:#a0522d"><g
                   id="g2740"
                   clip-path="url(#clipPath2744)"
                   style="fill:#a0522d"><g
                     id="g2746"
                     transform="translate(0,-2.835)"
                     style="fill:#a0522d"><g
                       id="g2748"
                       style="fill:#a0522d"><g
                         id="g2750"
                         clip-path="url(#clipPath2754)"
                         style="fill:#a0522d"><g
                           id="g2756"
                           transform="scale(0.1)"
                           style="fill:#a0522d"><path
                             d="m 592,1953 c 329,-2 867,-2 1195,0 329,1 60,2 -597,2 -657,0 -926,-1 -598,-2 z"
                             style="fill:#a0522d;fill-opacity:1;fill-rule:nonzero;stroke:none"
                             id="path2758" /><path
                             d="m 916,1787 c -22,-23 -54,-59 -69,-80 -15,-20 -34,-37 -42,-37 -8,0 -30,25 -50,55 -42,67 -73,82 -130,65 -22,-7 -50,-21 -62,-33 -23,-21 -30,-65 -14,-82 18,-20 71,-175 81,-237 13,-82 -1,-164 -33,-194 l -22,-22 -120,29 c -77,19 -147,29 -197,29 -73,0 -77,-1 -102,-31 -51,-60 -23,-152 56,-183 22,-10 121,-35 219,-57 297,-66 440,-113 424,-138 -2,-5 -71,-12 -152,-15 -159,-8 -225,-22 -313,-66 -84,-42 -88,-49 -56,-115 44,-89 66,-102 193,-110 145,-8 138,-6 141,-38 2,-20 -13,-57 -52,-126 -31,-53 -56,-104 -56,-113 0,-23 54,-66 99,-78 114,-31 205,43 298,240 30,63 60,126 67,140 14,27 88,69 121,70 72,1 320,-216 302,-264 -3,-8 -59,-41 -124,-73 -141,-69 -213,-131 -213,-181 0,-38 30,-72 63,-72 13,0 86,21 162,46 120,39 155,47 247,51 122,7 105,13 255,-99 l 91,-68 h 183 183 l -60,52 c -32,29 -75,68 -95,88 l -36,35 -6,240 c -3,134 -10,256 -16,277 -15,48 -53,78 -101,78 -60,0 -79,-29 -90,-141 -12,-118 -18,-145 -34,-158 -16,-13 -27,-5 -182,130 -134,118 -164,152 -164,188 0,74 67,185 210,352 140,163 188,230 230,320 32,68 35,81 35,169 0,75 -4,102 -17,123 -34,51 -162,60 -193,13 -8,-12 -26,-71 -40,-131 -15,-61 -35,-118 -44,-128 -18,-18 -19,-18 -38,10 -26,36 -48,95 -74,191 -11,42 -28,85 -36,95 -21,23 -80,22 -120,-3 -50,-30 -66,-71 -58,-146 7,-65 50,-226 85,-322 20,-54 25,-88 14,-116 -6,-17 -128,-119 -192,-161 l -43,-28 -52,21 c -29,11 -95,37 -147,57 -130,51 -145,60 -160,94 -15,37 -6,110 20,161 10,20 47,72 82,115 82,102 122,161 142,209 40,96 7,146 -97,146 -57,0 -61,-2 -101,-43 z"
                             style="fill:#a0522d;fill-opacity:1;fill-rule:nonzero;stroke:none"
                             id="path2760" /><path
                             d="m 1525,10 c -12,-5 49,-8 155,-8 101,0 162,4 145,8 -41,11 -275,11 -300,0 z"
                             style="fill:#a0522d;fill-opacity:1;fill-rule:nonzero;stroke:none"
                             id="path2762" /></g></g></g></g></g></g></g></g></g><g
           id="g2764"
           transform="translate(-48.388,-105.081)"
           style="fill:#a0522d" /></g></g><g
       id="g2766"
       transform="translate(14.173,19.05)"><g
         id="g2768" /><g
         id="g2770" /><g
         id="g2772" /><g
         id="g2774" /><g
         id="g2776"><path
           d="M 62.73141,80.6467 C 55.75804,79.42781 44.64615,66.81326 56.38174,55.58804 68.1455,44.36284 129.34659,51.87471 99.72379,88.41379 74.77888,75.00554 83.33969,87.27968 62.73141,80.6467 Z"
           style="fill:#edd425;fill-opacity:1;fill-rule:nonzero;stroke:none"
           id="path2778" /></g><g
         id="g2780"><path
           d="m 87.87483,90.7097 c 0,9.7848 -6.34555,17.71675 -14.1734,17.71675 -7.82785,0 -14.1734,-7.93195 -14.1734,-17.71675 0,-9.78482 6.34555,-17.71675 14.1734,-17.71675 7.82785,0 14.1734,7.93193 14.1734,17.71675 z"
           style="fill:#edd425;fill-opacity:1;fill-rule:nonzero;stroke:none"
           id="path2782" /></g><g
         id="g2784"><path
           d="M 59.69846,89.91599 C 66.41663,91.56006 63.52512,85.1252 73.98518,87.02448 50.54205,72.28444 55.8147,86.99635 59.69846,89.91599 Z"
           style="fill:#df8020;fill-opacity:1;fill-rule:nonzero;stroke:none"
           id="path2786" /></g><g
         id="g2788"><path
           d="m 73.83105,92.17557 c 0.66932,1.83893 0.14699,3.71725 -1.16665,4.19537 -1.31365,0.47812 -2.92114,-0.625 -3.59047,-2.46393 -0.66931,-1.83894 -0.14699,-3.71727 1.16667,-4.19539 1.31364,-0.47812 2.92114,0.625 3.59045,2.46395 z"
           style="fill:#fffdd9;fill-opacity:1;fill-rule:nonzero;stroke:none"
           id="path2790" /></g><g
         id="g2792"><path
           d="m 73.10577,92.13803 c 0.38228,1.05034 0.26638,2.05677 -0.25891,2.24794 -0.52526,0.19118 -1.261,-0.50528 -1.64328,-1.55562 -0.38228,-1.05034 -0.26637,-2.05676 0.2589,-2.24794 0.52528,-0.19117 1.26102,0.50528 1.64329,1.55562 z"
           style="fill:#000000;fill-opacity:1;fill-rule:nonzero;stroke:none"
           id="path2794" /></g><g
         id="g2796"><path
           d="m 65.5549,94.35838 c 0.61205,1.68158 0.17085,3.38593 -0.98543,3.80678 -1.15629,0.42085 -2.58981,-0.60113 -3.20186,-2.28271 -0.61204,-1.68158 -0.17085,-3.38593 0.98543,-3.80678 1.1563,-0.42085 2.58982,0.60113 3.20186,2.28271 z"
           style="fill:#fffdd9;fill-opacity:1;fill-rule:nonzero;stroke:none"
           id="path2798" /></g><g
         id="g2800"><path
           d="m 64.92499,94.28572 c 0.34428,0.94594 0.28238,1.8369 -0.13829,1.98999 -0.42067,0.15311 -1.04079,-0.48961 -1.38507,-1.43555 -0.3443,-0.94593 -0.2824,-1.83689 0.13827,-1.99 0.42067,-0.15309 1.04079,0.48961 1.38509,1.43556 z"
           style="fill:#000000;fill-opacity:1;fill-rule:nonzero;stroke:none"
           id="path2802" /></g></g><g
       id="g2806"
       transform="translate(14.173,19.05)"><g
         id="g2808" /><g
         id="g2810" /><g
         id="g2812" /><g
         id="g2814" /><g
         id="g2816"><path
           d="M 153.44116,74.97743 C 146.46779,73.75853 135.3559,61.144 147.09149,49.91878 158.85524,38.69356 220.05634,46.20543 190.43353,82.7445 165.48863,69.33626 174.04944,81.6104 153.44116,74.97743 Z"
           style="fill:#edd425;fill-opacity:1;fill-rule:nonzero;stroke:none"
           id="path2818" /></g><g
         id="g2820"><path
           d="m 178.58458,85.04042 c 0,9.78482 -6.34555,17.71675 -14.1734,17.71675 -7.82785,0 -14.1734,-7.93193 -14.1734,-17.71675 0,-9.7848 6.34555,-17.71675 14.1734,-17.71675 7.82785,0 14.1734,7.93195 14.1734,17.71675 z"
           style="fill:#edd425;fill-opacity:1;fill-rule:nonzero;stroke:none"
           id="path2822" /></g><g
         id="g2824"><path
           d="m 150.4082,84.2467 c 6.71817,1.6441 3.82668,-4.79077 14.28673,-2.89149 C 141.2518,66.61517 146.52444,81.32709 150.4082,84.2467 Z"
           style="fill:#df8020;fill-opacity:1;fill-rule:nonzero;stroke:none"
           id="path2826" /></g><g
         id="g2828"><path
           d="m 164.54082,86.50629 c 0.66931,1.83894 0.14698,3.71727 -1.16667,4.19539 -1.31365,0.4781 -2.92115,-0.625 -3.59046,-2.46395 -0.66931,-1.83894 -0.14699,-3.71727 1.16666,-4.19537 1.31364,-0.47812 2.92114,0.62498 3.59047,2.46393 z"
           style="fill:#fffdd9;fill-opacity:1;fill-rule:nonzero;stroke:none"
           id="path2830" /></g><g
         id="g2832"><path
           d="m 163.81552,86.46875 c 0.38229,1.05034 0.26638,2.05678 -0.25889,2.24795 -0.52529,0.19118 -1.26102,-0.50529 -1.6433,-1.55561 -0.38228,-1.05034 -0.26637,-2.05678 0.25891,-2.24796 0.52527,-0.19118 1.261,0.5053 1.64328,1.55562 z"
           style="fill:#000000;fill-opacity:1;fill-rule:nonzero;stroke:none"
           id="path2834" /></g><g
         id="g2836"><path
           d="m 156.26465,88.6891 c 0.61206,1.6816 0.17087,3.38593 -0.98543,3.80678 -1.1563,0.42085 -2.58982,-0.60114 -3.20186,-2.28271 -0.61204,-1.68158 -0.17085,-3.38593 0.98544,-3.80677 1.15629,-0.42085 2.5898,0.60112 3.20185,2.2827 z"
           style="fill:#fffdd9;fill-opacity:1;fill-rule:nonzero;stroke:none"
           id="path2838" /></g><g
         id="g2840"><path
           d="m 155.63474,88.61644 c 0.34428,0.94596 0.28239,1.8369 -0.13828,1.99001 -0.42067,0.15309 -1.0408,-0.48961 -1.38509,-1.43557 -0.3443,-0.94593 -0.28239,-1.8369 0.13828,-1.98998 0.42067,-0.15311 1.04079,0.4896 1.38509,1.43554 z"
           style="fill:#000000;fill-opacity:1;fill-rule:nonzero;stroke:none"
           id="path2842" /></g></g><g
       id="g2856"
       clip-path="url(#clipPath2860)"
       transform="matrix(0.1086,0,0,0.1086,175.947,118.462)"
       style="fill:#a0522d"><g
         id="g2862"
         style="fill:#a0522d"><g
           id="g2864"
           style="fill:#a0522d"><g
             id="g2866"
             clip-path="url(#clipPath2870)"
             style="fill:#a0522d"><g
               id="g2872"
               transform="scale(0.1)"
               style="fill:#a0522d"><path
                 d="m 653,1953 c 362,-2 952,-2 1310,0 359,1 63,2 -658,2 -721,0 -1014,-1 -652,-2 z"
                 style="fill:#a0522d;fill-opacity:1;fill-rule:nonzero;stroke:none"
                 id="path2874" /><path
                 d="m 1162,1789 c -27,-10 -53,-66 -77,-159 -17,-70 -62,-161 -82,-168 -17,-5 -40,55 -65,164 -11,50 -28,101 -37,113 -33,44 -167,35 -193,-12 -7,-13 -12,-59 -11,-117 2,-158 48,-249 228,-455 174,-198 246,-309 248,-382 1,-44 -34,-86 -177,-209 C 814,407 806,406 796,548 787,663 775,704 744,725 703,752 663,747 628,712 599,684 596,675 589,583 585,529 581,408 580,313 V 142 L 503,71 425,0 h 186 186 l 66,50 c 112,85 136,94 230,87 91,-6 209,-34 305,-72 79,-32 122,-32 150,-2 56,59 0,123 -198,227 -68,36 -126,70 -128,77 -4,15 156,176 215,216 68,47 152,49 192,5 11,-11 49,-80 85,-152 101,-206 175,-274 285,-263 64,7 105,33 109,71 3,27 -4,46 -71,166 -20,36 -37,73 -37,83 0,27 41,37 154,37 h 104 l 35,39 c 41,46 67,92 67,119 0,29 -39,58 -125,93 -75,30 -90,33 -237,38 -99,4 -161,10 -169,18 -25,25 107,69 456,149 88,20 177,45 198,56 101,51 77,188 -38,212 -31,6 -77,0 -235,-33 -52,-11 -104,-18 -116,-15 -32,8 -54,62 -54,131 0,66 15,125 66,256 37,95 36,108 -11,146 -68,53 -127,36 -176,-50 -20,-37 -39,-59 -48,-57 -8,2 -35,32 -60,67 -54,75 -96,101 -166,101 -69,0 -95,-20 -95,-71 0,-63 41,-135 161,-284 76,-94 91,-127 97,-210 6,-94 -3,-103 -158,-161 -224,-83 -205,-79 -241,-56 -66,42 -199,158 -205,179 -4,14 8,57 30,115 37,96 70,224 82,314 9,76 -22,127 -96,157 -23,10 -43,12 -58,6 z"
                 style="fill:#a0522d;fill-opacity:1;fill-rule:nonzero;stroke:none"
                 id="path2876" /></g></g></g></g></g><g
       id="g2880"
       transform="translate(14.173,19.05)"
       style="fill:#a0522d"><g
         id="g2882"
         transform="translate(139.097,99.412)"
         style="fill:#a0522d"><g
           id="g2884"
           style="fill:#a0522d"><g
             id="g2886"
             transform="scale(0.10718)"
             style="fill:#a0522d"><g
               id="g2888"
               style="fill:#a0522d"><g
                 id="g2890"
                 style="fill:#a0522d"><g
                   id="g2892"
                   clip-path="url(#clipPath2896)"
                   style="fill:#a0522d"><g
                     id="g2898"
                     transform="translate(0,-2.835)"
                     style="fill:#a0522d"><g
                       id="g2900"
                       style="fill:#a0522d"><g
                         id="g2902"
                         clip-path="url(#clipPath2906)"
                         style="fill:#a0522d"><g
                           id="g2908"
                           transform="scale(0.1)"
                           style="fill:#a0522d"><path
                             d="m 592,1953 c 329,-2 867,-2 1195,0 329,1 60,2 -597,2 -657,0 -926,-1 -598,-2 z"
                             style="fill:#a0522d;fill-opacity:1;fill-rule:nonzero;stroke:none"
                             id="path2910" /><path
                             d="m 916,1787 c -22,-23 -54,-59 -69,-80 -15,-20 -34,-37 -42,-37 -8,0 -30,25 -50,55 -42,67 -73,82 -130,65 -22,-7 -50,-21 -62,-33 -23,-21 -30,-65 -14,-82 18,-20 71,-175 81,-237 13,-82 -1,-164 -33,-194 l -22,-22 -120,29 c -77,19 -147,29 -197,29 -73,0 -77,-1 -102,-31 -51,-60 -23,-152 56,-183 22,-10 121,-35 219,-57 297,-66 440,-113 424,-138 -2,-5 -71,-12 -152,-15 -159,-8 -225,-22 -313,-66 -84,-42 -88,-49 -56,-115 44,-89 66,-102 193,-110 145,-8 138,-6 141,-38 2,-20 -13,-57 -52,-126 -31,-53 -56,-104 -56,-113 0,-23 54,-66 99,-78 114,-31 205,43 298,240 30,63 60,126 67,140 14,27 88,69 121,70 72,1 320,-216 302,-264 -3,-8 -59,-41 -124,-73 -141,-69 -213,-131 -213,-181 0,-38 30,-72 63,-72 13,0 86,21 162,46 120,39 155,47 247,51 122,7 105,13 255,-99 l 91,-68 h 183 183 l -60,52 c -32,29 -75,68 -95,88 l -36,35 -6,240 c -3,134 -10,256 -16,277 -15,48 -53,78 -101,78 -60,0 -79,-29 -90,-141 -12,-118 -18,-145 -34,-158 -16,-13 -27,-5 -182,130 -134,118 -164,152 -164,188 0,74 67,185 210,352 140,163 188,230 230,320 32,68 35,81 35,169 0,75 -4,102 -17,123 -34,51 -162,60 -193,13 -8,-12 -26,-71 -40,-131 -15,-61 -35,-118 -44,-128 -18,-18 -19,-18 -38,10 -26,36 -48,95 -74,191 -11,42 -28,85 -36,95 -21,23 -80,22 -120,-3 -50,-30 -66,-71 -58,-146 7,-65 50,-226 85,-322 20,-54 25,-88 14,-116 -6,-17 -128,-119 -192,-161 l -43,-28 -52,21 c -29,11 -95,37 -147,57 -130,51 -145,60 -160,94 -15,37 -6,110 20,161 10,20 47,72 82,115 82,102 122,161 142,209 40,96 7,146 -97,146 -57,0 -61,-2 -101,-43 z"
                             style="fill:#a0522d;fill-opacity:1;fill-rule:nonzero;stroke:none"
                             id="path2912" /><path
                             d="m 1525,10 c -12,-5 49,-8 155,-8 101,0 162,4 145,8 -41,11 -275,11 -300,0 z"
                             style="fill:#a0522d;fill-opacity:1;fill-rule:nonzero;stroke:none"
                             id="path2914" /></g></g></g></g></g></g></g></g></g><g
           id="g2916"
           transform="translate(-139.097,-99.412)"
           style="fill:#a0522d" /></g></g><g
       id="g2918"
       transform="translate(14.173,19.05)"><g
         id="g2920" /><g
         id="g2922" /><g
         id="g2924" /><g
         id="g2926" /><g
         id="g2928"><path
           d="M 153.44116,74.97743 C 146.46779,73.75853 135.3559,61.144 147.09149,49.91878 158.85524,38.69356 220.05634,46.20543 190.43353,82.7445 165.48863,69.33626 174.04944,81.6104 153.44116,74.97743 Z"
           style="fill:#edd425;fill-opacity:1;fill-rule:nonzero;stroke:none"
           id="path2930" /></g><g
         id="g2932"><path
           d="m 178.58458,85.04042 c 0,9.78482 -6.34555,17.71675 -14.1734,17.71675 -7.82785,0 -14.1734,-7.93193 -14.1734,-17.71675 0,-9.7848 6.34555,-17.71675 14.1734,-17.71675 7.82785,0 14.1734,7.93195 14.1734,17.71675 z"
           style="fill:#edd425;fill-opacity:1;fill-rule:nonzero;stroke:none"
           id="path2934" /></g><g
         id="g2936"><path
           d="m 150.4082,84.2467 c 6.71817,1.6441 3.82668,-4.79077 14.28673,-2.89149 C 141.2518,66.61517 146.52444,81.32709 150.4082,84.2467 Z"
           style="fill:#df8020;fill-opacity:1;fill-rule:nonzero;stroke:none"
           id="path2938" /></g><g
         id="g2940"><path
           d="m 164.54082,86.50629 c 0.66931,1.83894 0.14698,3.71727 -1.16667,4.19539 -1.31365,0.4781 -2.92115,-0.625 -3.59046,-2.46395 -0.66931,-1.83894 -0.14699,-3.71727 1.16666,-4.19537 1.31364,-0.47812 2.92114,0.62498 3.59047,2.46393 z"
           style="fill:#fffdd9;fill-opacity:1;fill-rule:nonzero;stroke:none"
           id="path2942" /></g><g
         id="g2944"><path
           d="m 163.81552,86.46875 c 0.38229,1.05034 0.26638,2.05678 -0.25889,2.24795 -0.52529,0.19118 -1.26102,-0.50529 -1.6433,-1.55561 -0.38228,-1.05034 -0.26637,-2.05678 0.25891,-2.24796 0.52527,-0.19118 1.261,0.5053 1.64328,1.55562 z"
           style="fill:#000000;fill-opacity:1;fill-rule:nonzero;stroke:none"
           id="path2946" /></g><g
         id="g2948"><path
           d="m 156.26465,88.6891 c 0.61206,1.6816 0.17087,3.38593 -0.98543,3.80678 -1.1563,0.42085 -2.58982,-0.60114 -3.20186,-2.28271 -0.61204,-1.68158 -0.17085,-3.38593 0.98544,-3.80677 1.15629,-0.42085 2.5898,0.60112 3.20185,2.2827 z"
           style="fill:#fffdd9;fill-opacity:1;fill-rule:nonzero;stroke:none"
           id="path2950" /></g><g
         id="g2952"><path
           d="m 155.63474,88.61644 c 0.34428,0.94596 0.28239,1.8369 -0.13828,1.99001 -0.42067,0.15309 -1.0408,-0.48961 -1.38509,-1.43557 -0.3443,-0.94593 -0.28239,-1.8369 0.13828,-1.98998 0.42067,-0.15311 1.04079,0.4896 1.38509,1.43554 z"
           style="fill:#000000;fill-opacity:1;fill-rule:nonzero;stroke:none"
           id="path2954" /></g></g><g
       id="g2958"
       transform="translate(14.173,19.05)"><g
         id="g2960" /><g
         id="g2962" /><g
         id="g2964" /><g
         id="g2966" /><g
         id="g2968"><path
           d="M 17.45026,38.94855 C 9.08221,37.48587 -4.25198,22.34846 9.83067,8.87823 23.94713,-4.59196 97.38826,4.42223 61.84099,48.26903 31.90718,32.17915 42.18011,46.90808 17.45026,38.94855 Z"
           style="fill:#edd425;fill-opacity:1;fill-rule:nonzero;stroke:none"
           id="path2970" /></g><g
         id="g2972"><path
           d="m 47.62225,51.02411 c 0,11.74173 -7.61464,21.26004 -17.00801,21.26004 -9.39338,0 -17.00802,-9.51831 -17.00802,-21.26004 0,-11.74173 7.61464,-21.26004 17.00802,-21.26004 9.39337,0 17.00801,9.51831 17.00801,21.26004 z"
           style="fill:#edd425;fill-opacity:1;fill-rule:nonzero;stroke:none"
           id="path2974" /></g><g
         id="g2976"><path
           d="m 13.8107,50.07166 c 8.0618,1.97288 4.592,-5.74894 17.14403,-3.46981 C 2.82306,28.91385 9.15022,46.5681 13.8107,50.07166 Z"
           style="fill:#df8020;fill-opacity:1;fill-rule:nonzero;stroke:none"
           id="path2978" /></g><g
         id="g2980"><path
           d="m 30.76901,52.78278 c 0.80315,2.20671 0.17636,4.46066 -1.40001,5.03439 -1.57637,0.57374 -3.50534,-0.75 -4.30848,-2.9567 -0.80315,-2.20671 -0.17636,-4.46066 1.40001,-5.03439 1.57637,-0.57375 3.50534,0.75 4.30848,2.9567 z"
           style="fill:#fffdd9;fill-opacity:1;fill-rule:nonzero;stroke:none"
           id="path2982" /></g><g
         id="g2984"><path
           d="m 29.89868,52.73776 c 0.45874,1.26041 0.31962,2.46811 -0.3107,2.69753 -0.63032,0.22941 -1.51317,-0.60634 -1.97191,-1.86673 -0.45874,-1.26039 -0.31962,-2.46811 0.3107,-2.69751 0.63033,-0.22942 1.51317,0.60632 1.97191,1.86671 z"
           style="fill:#000000;fill-opacity:1;fill-rule:nonzero;stroke:none"
           id="path2986" /></g><g
         id="g2988"><path
           d="m 20.8377,55.40208 c 0.73443,2.01787 0.205,4.06304 -1.18253,4.56804 -1.38753,0.50501 -3.10772,-0.72137 -3.84214,-2.73924 -0.73442,-2.01787 -0.20498,-4.06303 1.18254,-4.56804 1.38753,-0.50502 3.10772,0.72138 3.84213,2.73924 z"
           style="fill:#fffdd9;fill-opacity:1;fill-rule:nonzero;stroke:none"
           id="path2990" /></g><g
         id="g2992"><path
           d="m 20.08182,55.31485 c 0.41314,1.13513 0.33883,2.20427 -0.16594,2.38799 -0.50479,0.18371 -1.24892,-0.58753 -1.66207,-1.72266 -0.41314,-1.13513 -0.33883,-2.20427 0.16594,-2.38798 0.5048,-0.18372 1.24892,0.58752 1.66207,1.72265 z"
           style="fill:#000000;fill-opacity:1;fill-rule:nonzero;stroke:none"
           id="path2994" /></g></g><g
       id="g2996"
       transform="translate(14.173,19.05)"
       style="fill:#a0522d"><g
         id="g2998"
         transform="matrix(1.2,0,0,1.2,27.457,68.283)"
         style="fill:#a0522d"><g
           id="g3000"
           style="fill:#a0522d"><g
             id="g3002"
             transform="scale(0.1086)"
             style="fill:#a0522d"><g
               id="g3004"
               style="fill:#a0522d"><g
                 id="g3006"
                 style="fill:#a0522d"><g
                   id="g3008"
                   clip-path="url(#clipPath3012)"
                   style="fill:#a0522d"><g
                     id="g3014"
                     style="fill:#a0522d"><g
                       id="g3016"
                       style="fill:#a0522d"><g
                         id="g3018"
                         clip-path="url(#clipPath3022)"
                         style="fill:#a0522d"><g
                           id="g3024"
                           transform="scale(0.1)"
                           style="fill:#a0522d"><path
                             d="m 653,1953 c 362,-2 952,-2 1310,0 359,1 63,2 -658,2 -721,0 -1014,-1 -652,-2 z"
                             style="fill:#a0522d;fill-opacity:1;fill-rule:nonzero;stroke:none"
                             id="path3026" /><path
                             d="m 1162,1789 c -27,-10 -53,-66 -77,-159 -17,-70 -62,-161 -82,-168 -17,-5 -40,55 -65,164 -11,50 -28,101 -37,113 -33,44 -167,35 -193,-12 -7,-13 -12,-59 -11,-117 2,-158 48,-249 228,-455 174,-198 246,-309 248,-382 1,-44 -34,-86 -177,-209 C 814,407 806,406 796,548 787,663 775,704 744,725 703,752 663,747 628,712 599,684 596,675 589,583 585,529 581,408 580,313 V 142 L 503,71 425,0 h 186 186 l 66,50 c 112,85 136,94 230,87 91,-6 209,-34 305,-72 79,-32 122,-32 150,-2 56,59 0,123 -198,227 -68,36 -126,70 -128,77 -4,15 156,176 215,216 68,47 152,49 192,5 11,-11 49,-80 85,-152 101,-206 175,-274 285,-263 64,7 105,33 109,71 3,27 -4,46 -71,166 -20,36 -37,73 -37,83 0,27 41,37 154,37 h 104 l 35,39 c 41,46 67,92 67,119 0,29 -39,58 -125,93 -75,30 -90,33 -237,38 -99,4 -161,10 -169,18 -25,25 107,69 456,149 88,20 177,45 198,56 101,51 77,188 -38,212 -31,6 -77,0 -235,-33 -52,-11 -104,-18 -116,-15 -32,8 -54,62 -54,131 0,66 15,125 66,256 37,95 36,108 -11,146 -68,53 -127,36 -176,-50 -20,-37 -39,-59 -48,-57 -8,2 -35,32 -60,67 -54,75 -96,101 -166,101 -69,0 -95,-20 -95,-71 0,-63 41,-135 161,-284 76,-94 91,-127 97,-210 6,-94 -3,-103 -158,-161 -224,-83 -205,-79 -241,-56 -66,42 -199,158 -205,179 -4,14 8,57 30,115 37,96 70,224 82,314 9,76 -22,127 -96,157 -23,10 -43,12 -58,6 z"
                             style="fill:#a0522d;fill-opacity:1;fill-rule:nonzero;stroke:none"
                             id="path3028" /></g></g></g></g></g></g></g></g></g><g
           id="g3030"
           transform="translate(-27.457,-68.283)"
           style="fill:#a0522d" /></g></g><g
       id="g3032"
       transform="translate(14.173,19.05)"
       style="fill:#a0522d"><g
         id="g3034"
         transform="matrix(1.2,0,0,1.2,0.245,68.283)"
         style="fill:#a0522d"><g
           id="g3036"
           style="fill:#a0522d"><g
             id="g3038"
             transform="scale(0.10718)"
             style="fill:#a0522d"><g
               id="g3040"
               style="fill:#a0522d"><g
                 id="g3042"
                 style="fill:#a0522d"><g
                   id="g3044"
                   clip-path="url(#clipPath3048)"
                   style="fill:#a0522d"><g
                     id="g3050"
                     transform="translate(0,-2.835)"
                     style="fill:#a0522d"><g
                       id="g3052"
                       style="fill:#a0522d"><g
                         id="g3054"
                         clip-path="url(#clipPath3058)"
                         style="fill:#a0522d"><g
                           id="g3060"
                           transform="scale(0.1)"
                           style="fill:#a0522d"><path
                             d="m 592,1953 c 329,-2 867,-2 1195,0 329,1 60,2 -597,2 -657,0 -926,-1 -598,-2 z"
                             style="fill:#a0522d;fill-opacity:1;fill-rule:nonzero;stroke:none"
                             id="path3062" /><path
                             d="m 916,1787 c -22,-23 -54,-59 -69,-80 -15,-20 -34,-37 -42,-37 -8,0 -30,25 -50,55 -42,67 -73,82 -130,65 -22,-7 -50,-21 -62,-33 -23,-21 -30,-65 -14,-82 18,-20 71,-175 81,-237 13,-82 -1,-164 -33,-194 l -22,-22 -120,29 c -77,19 -147,29 -197,29 -73,0 -77,-1 -102,-31 -51,-60 -23,-152 56,-183 22,-10 121,-35 219,-57 297,-66 440,-113 424,-138 -2,-5 -71,-12 -152,-15 -159,-8 -225,-22 -313,-66 -84,-42 -88,-49 -56,-115 44,-89 66,-102 193,-110 145,-8 138,-6 141,-38 2,-20 -13,-57 -52,-126 -31,-53 -56,-104 -56,-113 0,-23 54,-66 99,-78 114,-31 205,43 298,240 30,63 60,126 67,140 14,27 88,69 121,70 72,1 320,-216 302,-264 -3,-8 -59,-41 -124,-73 -141,-69 -213,-131 -213,-181 0,-38 30,-72 63,-72 13,0 86,21 162,46 120,39 155,47 247,51 122,7 105,13 255,-99 l 91,-68 h 183 183 l -60,52 c -32,29 -75,68 -95,88 l -36,35 -6,240 c -3,134 -10,256 -16,277 -15,48 -53,78 -101,78 -60,0 -79,-29 -90,-141 -12,-118 -18,-145 -34,-158 -16,-13 -27,-5 -182,130 -134,118 -164,152 -164,188 0,74 67,185 210,352 140,163 188,230 230,320 32,68 35,81 35,169 0,75 -4,102 -17,123 -34,51 -162,60 -193,13 -8,-12 -26,-71 -40,-131 -15,-61 -35,-118 -44,-128 -18,-18 -19,-18 -38,10 -26,36 -48,95 -74,191 -11,42 -28,85 -36,95 -21,23 -80,22 -120,-3 -50,-30 -66,-71 -58,-146 7,-65 50,-226 85,-322 20,-54 25,-88 14,-116 -6,-17 -128,-119 -192,-161 l -43,-28 -52,21 c -29,11 -95,37 -147,57 -130,51 -145,60 -160,94 -15,37 -6,110 20,161 10,20 47,72 82,115 82,102 122,161 142,209 40,96 7,146 -97,146 -57,0 -61,-2 -101,-43 z"
                             style="fill:#a0522d;fill-opacity:1;fill-rule:nonzero;stroke:none"
                             id="path3064" /><path
                             d="m 1525,10 c -12,-5 49,-8 155,-8 101,0 162,4 145,8 -41,11 -275,11 -300,0 z"
                             style="fill:#a0522d;fill-opacity:1;fill-rule:nonzero;stroke:none"
                             id="path3066" /></g></g></g></g></g></g></g></g></g><g
           id="g3068"
           transform="translate(-0.245,-68.283)"
           style="fill:#a0522d" /></g></g><g
       id="g3070"
       transform="translate(14.173,19.05)"><g
         id="g3072" /><g
         id="g3074" /><g
         id="g3076" /><g
         id="g3078" /><g
         id="g3080"><path
           d="M 17.45026,38.94855 C 9.08221,37.48587 -4.25198,22.34846 9.83067,8.87823 23.94713,-4.59196 97.38826,4.42223 61.84099,48.26903 31.90718,32.17915 42.18011,46.90808 17.45026,38.94855 Z"
           style="fill:#edd425;fill-opacity:1;fill-rule:nonzero;stroke:none"
           id="path3082" /></g><g
         id="g3084"><path
           d="m 47.62225,51.02411 c 0,11.74173 -7.61464,21.26004 -17.00801,21.26004 -9.39338,0 -17.00802,-9.51831 -17.00802,-21.26004 0,-11.74173 7.61464,-21.26004 17.00802,-21.26004 9.39337,0 17.00801,9.51831 17.00801,21.26004 z"
           style="fill:#edd425;fill-opacity:1;fill-rule:nonzero;stroke:none"
           id="path3086" /></g><g
         id="g3088"><path
           d="m 13.8107,50.07166 c 8.0618,1.97288 4.592,-5.74894 17.14403,-3.46981 C 2.82306,28.91385 9.15022,46.5681 13.8107,50.07166 Z"
           style="fill:#ff0000;fill-opacity:1;fill-rule:nonzero;stroke:none"
           id="path3090" /></g><g
         id="g3092"><path
           d="m 30.76901,52.78278 c 0.80315,2.20671 0.17636,4.46066 -1.40001,5.03439 -1.57637,0.57374 -3.50534,-0.75 -4.30848,-2.9567 -0.80315,-2.20671 -0.17636,-4.46066 1.40001,-5.03439 1.57637,-0.57375 3.50534,0.75 4.30848,2.9567 z"
           style="fill:#fffdd9;fill-opacity:1;fill-rule:nonzero;stroke:none"
           id="path3094" /></g><g
         id="g3096"><path
           d="m 29.89868,52.73776 c 0.45874,1.26041 0.31962,2.46811 -0.3107,2.69753 -0.63032,0.22941 -1.51317,-0.60634 -1.97191,-1.86673 -0.45874,-1.26039 -0.31962,-2.46811 0.3107,-2.69751 0.63033,-0.22942 1.51317,0.60632 1.97191,1.86671 z"
           style="fill:#000000;fill-opacity:1;fill-rule:nonzero;stroke:none"
           id="path3098" /></g><g
         id="g3100"><path
           d="m 20.8377,55.40208 c 0.73443,2.01787 0.205,4.06304 -1.18253,4.56804 -1.38753,0.50501 -3.10772,-0.72137 -3.84214,-2.73924 -0.73442,-2.01787 -0.20498,-4.06303 1.18254,-4.56804 1.38753,-0.50502 3.10772,0.72138 3.84213,2.73924 z"
           style="fill:#fffdd9;fill-opacity:1;fill-rule:nonzero;stroke:none"
           id="path3102" /></g><g
         id="g3104"><path
           d="m 20.08182,55.31485 c 0.41314,1.13513 0.33883,2.20427 -0.16594,2.38799 -0.50479,0.18371 -1.24892,-0.58753 -1.66207,-1.72266 -0.41314,-1.13513 -0.33883,-2.20427 0.16594,-2.38798 0.5048,-0.18372 1.24892,0.58752 1.66207,1.72265 z"
           style="fill:#000000;fill-opacity:1;fill-rule:nonzero;stroke:none"
           id="path3106" /></g></g><g
       id="g3110"
       transform="translate(14.173,19.05)"><g
         id="g3112" /><g
         id="g3114" /><g
         id="g3116" /><g
         id="g3118" /><g
         id="g3120"><path
           d="M 102.4907,41.78339 C 94.12268,40.32071 80.78845,25.18332 94.87112,11.71309 108.98758,-1.75711 182.42873,7.25708 146.88144,51.10388 116.94765,35.014 127.22058,49.74294 102.4907,41.78339 Z"
           style="fill:#edd425;fill-opacity:1;fill-rule:nonzero;stroke:none"
           id="path3122" /></g><g
         id="g3124"><path
           d="m 132.66272,53.85896 c 0,11.74174 -7.61464,21.26004 -17.00802,21.26004 -9.39338,0 -17.00802,-9.5183 -17.00802,-21.26004 0,-11.74174 7.61464,-21.26004 17.00802,-21.26004 9.39338,0 17.00802,9.5183 17.00802,21.26004 z"
           style="fill:#edd425;fill-opacity:1;fill-rule:nonzero;stroke:none"
           id="path3126" /></g><g
         id="g3128"><path
           d="m 98.85117,52.90651 c 8.06178,1.97289 4.59199,-5.74893 17.14403,-3.46981 -28.13167,-17.688 -21.80453,-0.03375 -17.14403,3.46981 z"
           style="fill:#df8020;fill-opacity:1;fill-rule:nonzero;stroke:none"
           id="path3130" /></g><g
         id="g3132"><path
           d="m 115.80946,55.61763 c 0.80317,2.20671 0.17636,4.46067 -1.40001,5.03439 -1.57637,0.57375 -3.50532,-0.75 -4.30848,-2.95671 -0.80315,-2.20669 -0.17635,-4.46065 1.40002,-5.03439 1.57637,-0.57373 3.50533,0.75001 4.30847,2.95671 z"
           style="fill:#fffdd9;fill-opacity:1;fill-rule:nonzero;stroke:none"
           id="path3134" /></g><g
         id="g3136"><path
           d="m 114.93915,55.57262 c 0.45872,1.26039 0.31961,2.46811 -0.3107,2.69751 -0.63033,0.22941 -1.51319,-0.60633 -1.97191,-1.86672 -0.45874,-1.26041 -0.31963,-2.46811 0.31068,-2.69752 0.63033,-0.22942 1.51319,0.60634 1.97193,1.86673 z"
           style="fill:#000000;fill-opacity:1;fill-rule:nonzero;stroke:none"
           id="path3138" /></g><g
         id="g3140"><path
           d="m 105.87817,58.23694 c 0.73443,2.01785 0.20498,4.06302 -1.18255,4.56804 -1.38753,0.505 -3.10772,-0.72139 -3.84213,-2.73925 -0.73443,-2.01786 -0.20499,-4.06303 1.18255,-4.56805 1.38753,-0.505 3.10771,0.72139 3.84213,2.73926 z"
           style="fill:#fffdd9;fill-opacity:1;fill-rule:nonzero;stroke:none"
           id="path3142" /></g><g
         id="g3144"><path
           d="m 105.12228,58.1497 c 0.41315,1.13514 0.33884,2.20427 -0.16595,2.38799 -0.50478,0.18371 -1.24892,-0.58753 -1.66205,-1.72266 -0.41315,-1.13513 -0.33885,-2.20427 0.16594,-2.38798 0.50478,-0.18372 1.24892,0.58752 1.66206,1.72265 z"
           style="fill:#000000;fill-opacity:1;fill-rule:nonzero;stroke:none"
           id="path3146" /></g></g><g
       id="g3148"
       transform="translate(14.173,19.05)"
       style="fill:#a0522d"><g
         id="g3150"
         transform="matrix(1.2,0,0,1.2,112.497,71.118)"
         style="fill:#a0522d"><g
           id="g3152"
           style="fill:#a0522d"><g
             id="g3154"
             transform="scale(0.1086)"
             style="fill:#a0522d"><g
               id="g3156"
               style="fill:#a0522d"><g
                 id="g3158"
                 style="fill:#a0522d"><g
                   id="g3160"
                   clip-path="url(#clipPath3164)"
                   style="fill:#a0522d"><g
                     id="g3166"
                     style="fill:#a0522d"><g
                       id="g3168"
                       style="fill:#a0522d"><g
                         id="g3170"
                         clip-path="url(#clipPath3174)"
                         style="fill:#a0522d"><g
                           id="g3176"
                           transform="scale(0.1)"
                           style="fill:#a0522d"><path
                             d="m 653,1953 c 362,-2 952,-2 1310,0 359,1 63,2 -658,2 -721,0 -1014,-1 -652,-2 z"
                             style="fill:#a0522d;fill-opacity:1;fill-rule:nonzero;stroke:none"
                             id="path3178" /><path
                             d="m 1162,1789 c -27,-10 -53,-66 -77,-159 -17,-70 -62,-161 -82,-168 -17,-5 -40,55 -65,164 -11,50 -28,101 -37,113 -33,44 -167,35 -193,-12 -7,-13 -12,-59 -11,-117 2,-158 48,-249 228,-455 174,-198 246,-309 248,-382 1,-44 -34,-86 -177,-209 C 814,407 806,406 796,548 787,663 775,704 744,725 703,752 663,747 628,712 599,684 596,675 589,583 585,529 581,408 580,313 V 142 L 503,71 425,0 h 186 186 l 66,50 c 112,85 136,94 230,87 91,-6 209,-34 305,-72 79,-32 122,-32 150,-2 56,59 0,123 -198,227 -68,36 -126,70 -128,77 -4,15 156,176 215,216 68,47 152,49 192,5 11,-11 49,-80 85,-152 101,-206 175,-274 285,-263 64,7 105,33 109,71 3,27 -4,46 -71,166 -20,36 -37,73 -37,83 0,27 41,37 154,37 h 104 l 35,39 c 41,46 67,92 67,119 0,29 -39,58 -125,93 -75,30 -90,33 -237,38 -99,4 -161,10 -169,18 -25,25 107,69 456,149 88,20 177,45 198,56 101,51 77,188 -38,212 -31,6 -77,0 -235,-33 -52,-11 -104,-18 -116,-15 -32,8 -54,62 -54,131 0,66 15,125 66,256 37,95 36,108 -11,146 -68,53 -127,36 -176,-50 -20,-37 -39,-59 -48,-57 -8,2 -35,32 -60,67 -54,75 -96,101 -166,101 -69,0 -95,-20 -95,-71 0,-63 41,-135 161,-284 76,-94 91,-127 97,-210 6,-94 -3,-103 -158,-161 -224,-83 -205,-79 -241,-56 -66,42 -199,158 -205,179 -4,14 8,57 30,115 37,96 70,224 82,314 9,76 -22,127 -96,157 -23,10 -43,12 -58,6 z"
                             style="fill:#a0522d;fill-opacity:1;fill-rule:nonzero;stroke:none"
                             id="path3180" /></g></g></g></g></g></g></g></g></g><g
           id="g3182"
           transform="translate(-112.497,-71.118)"
           style="fill:#a0522d" /></g></g><g
       id="g3184"
       transform="translate(14.173,19.05)"
       style="fill:#a0522d"><g
         id="g3186"
         transform="matrix(1.2,0,0,1.2,85.284,71.118)"
         style="fill:#a0522d"><g
           id="g3188"
           style="fill:#a0522d"><g
             id="g3190"
             transform="scale(0.10718)"
             style="fill:#a0522d"><g
               id="g3192"
               style="fill:#a0522d"><g
                 id="g3194"
                 style="fill:#a0522d"><g
                   id="g3196"
                   clip-path="url(#clipPath3200)"
                   style="fill:#a0522d"><g
                     id="g3202"
                     transform="translate(0,-2.835)"
                     style="fill:#a0522d"><g
                       id="g3204"
                       style="fill:#a0522d"><g
                         id="g3206"
                         clip-path="url(#clipPath3210)"
                         style="fill:#a0522d"><g
                           id="g3212"
                           transform="scale(0.1)"
                           style="fill:#a0522d"><path
                             d="m 592,1953 c 329,-2 867,-2 1195,0 329,1 60,2 -597,2 -657,0 -926,-1 -598,-2 z"
                             style="fill:#a0522d;fill-opacity:1;fill-rule:nonzero;stroke:none"
                             id="path3214" /><path
                             d="m 916,1787 c -22,-23 -54,-59 -69,-80 -15,-20 -34,-37 -42,-37 -8,0 -30,25 -50,55 -42,67 -73,82 -130,65 -22,-7 -50,-21 -62,-33 -23,-21 -30,-65 -14,-82 18,-20 71,-175 81,-237 13,-82 -1,-164 -33,-194 l -22,-22 -120,29 c -77,19 -147,29 -197,29 -73,0 -77,-1 -102,-31 -51,-60 -23,-152 56,-183 22,-10 121,-35 219,-57 297,-66 440,-113 424,-138 -2,-5 -71,-12 -152,-15 -159,-8 -225,-22 -313,-66 -84,-42 -88,-49 -56,-115 44,-89 66,-102 193,-110 145,-8 138,-6 141,-38 2,-20 -13,-57 -52,-126 -31,-53 -56,-104 -56,-113 0,-23 54,-66 99,-78 114,-31 205,43 298,240 30,63 60,126 67,140 14,27 88,69 121,70 72,1 320,-216 302,-264 -3,-8 -59,-41 -124,-73 -141,-69 -213,-131 -213,-181 0,-38 30,-72 63,-72 13,0 86,21 162,46 120,39 155,47 247,51 122,7 105,13 255,-99 l 91,-68 h 183 183 l -60,52 c -32,29 -75,68 -95,88 l -36,35 -6,240 c -3,134 -10,256 -16,277 -15,48 -53,78 -101,78 -60,0 -79,-29 -90,-141 -12,-118 -18,-145 -34,-158 -16,-13 -27,-5 -182,130 -134,118 -164,152 -164,188 0,74 67,185 210,352 140,163 188,230 230,320 32,68 35,81 35,169 0,75 -4,102 -17,123 -34,51 -162,60 -193,13 -8,-12 -26,-71 -40,-131 -15,-61 -35,-118 -44,-128 -18,-18 -19,-18 -38,10 -26,36 -48,95 -74,191 -11,42 -28,85 -36,95 -21,23 -80,22 -120,-3 -50,-30 -66,-71 -58,-146 7,-65 50,-226 85,-322 20,-54 25,-88 14,-116 -6,-17 -128,-119 -192,-161 l -43,-28 -52,21 c -29,11 -95,37 -147,57 -130,51 -145,60 -160,94 -15,37 -6,110 20,161 10,20 47,72 82,115 82,102 122,161 142,209 40,96 7,146 -97,146 -57,0 -61,-2 -101,-43 z"
                             style="fill:#a0522d;fill-opacity:1;fill-rule:nonzero;stroke:none"
                             id="path3216" /><path
                             d="m 1525,10 c -12,-5 49,-8 155,-8 101,0 162,4 145,8 -41,11 -275,11 -300,0 z"
                             style="fill:#a0522d;fill-opacity:1;fill-rule:nonzero;stroke:none"
                             id="path3218" /></g></g></g></g></g></g></g></g></g><g
           id="g3220"
           transform="translate(-85.284,-71.118)"
           style="fill:#a0522d" /></g></g><g
       id="g3222"
       transform="translate(14.173,19.05)"><g
         id="g3224" /><g
         id="g3226" /><g
         id="g3228" /><g
         id="g3230" /><g
         id="g3232"><path
           d="M 102.4907,41.78339 C 94.12268,40.32071 80.78845,25.18332 94.87112,11.71309 108.98758,-1.75711 182.42873,7.25708 146.88144,51.10388 116.94765,35.014 127.22058,49.74294 102.4907,41.78339 Z"
           style="fill:#edd425;fill-opacity:1;fill-rule:nonzero;stroke:none"
           id="path3234" /></g><g
         id="g3236"><path
           d="m 132.66272,53.85896 c 0,11.74174 -7.61464,21.26004 -17.00802,21.26004 -9.39338,0 -17.00802,-9.5183 -17.00802,-21.26004 0,-11.74174 7.61464,-21.26004 17.00802,-21.26004 9.39338,0 17.00802,9.5183 17.00802,21.26004 z"
           style="fill:#edd425;fill-opacity:1;fill-rule:nonzero;stroke:none"
           id="path3238" /></g><g
         id="g3240"><path
           d="m 98.85117,52.90651 c 8.06178,1.97289 4.59199,-5.74893 17.14403,-3.46981 -28.13167,-17.688 -21.80453,-0.03375 -17.14403,3.46981 z"
           style="fill:#df8020;fill-opacity:1;fill-rule:nonzero;stroke:none"
           id="path3242" /></g><g
         id="g3244"><path
           d="m 115.80946,55.61763 c 0.80317,2.20671 0.17636,4.46067 -1.40001,5.03439 -1.57637,0.57375 -3.50532,-0.75 -4.30848,-2.95671 -0.80315,-2.20669 -0.17635,-4.46065 1.40002,-5.03439 1.57637,-0.57373 3.50533,0.75001 4.30847,2.95671 z"
           style="fill:#fffdd9;fill-opacity:1;fill-rule:nonzero;stroke:none"
           id="path3246" /></g><g
         id="g3248"><path
           d="m 114.93915,55.57262 c 0.45872,1.26039 0.31961,2.46811 -0.3107,2.69751 -0.63033,0.22941 -1.51319,-0.60633 -1.97191,-1.86672 -0.45874,-1.26041 -0.31963,-2.46811 0.31068,-2.69752 0.63033,-0.22942 1.51319,0.60634 1.97193,1.86673 z"
           style="fill:#000000;fill-opacity:1;fill-rule:nonzero;stroke:none"
           id="path3250" /></g><g
         id="g3252"><path
           d="m 105.87817,58.23694 c 0.73443,2.01785 0.20498,4.06302 -1.18255,4.56804 -1.38753,0.505 -3.10772,-0.72139 -3.84213,-2.73925 -0.73443,-2.01786 -0.20499,-4.06303 1.18255,-4.56805 1.38753,-0.505 3.10771,0.72139 3.84213,2.73926 z"
           style="fill:#fffdd9;fill-opacity:1;fill-rule:nonzero;stroke:none"
           id="path3254" /></g><g
         id="g3256"><path
           d="m 105.12228,58.1497 c 0.41315,1.13514 0.33884,2.20427 -0.16595,2.38799 -0.50478,0.18371 -1.24892,-0.58753 -1.66205,-1.72266 -0.41315,-1.13513 -0.33885,-2.20427 0.16594,-2.38798 0.50478,-0.18372 1.24892,0.58752 1.66206,1.72265 z"
           style="fill:#000000;fill-opacity:1;fill-rule:nonzero;stroke:none"
           id="path3258" /></g></g><g
       id="g3262"
       transform="translate(14.173,19.05)"><g
         id="g3264" /><g
         id="g3266" /><g
         id="g3268" /><g
         id="g3270" /><g
         id="g3272"><path
           d="M 241.31648,89.15083 C 234.34311,87.93195 223.23123,75.3174 234.96681,64.0922 246.73056,52.86697 307.93166,60.37885 278.30885,96.91792 253.36397,83.50967 261.92476,95.78381 241.31648,89.15083 Z"
           style="fill:#f3d495;fill-opacity:1;fill-rule:nonzero;stroke:none"
           id="path3274" /></g><g
         id="g3276"><path
           d="m 266.4599,99.21384 c 0,9.7848 -6.34555,17.71675 -14.17339,17.71675 -7.82785,0 -14.1734,-7.93195 -14.1734,-17.71675 0,-9.78482 6.34555,-17.71675 14.1734,-17.71675 7.82784,0 14.17339,7.93193 14.17339,17.71675 z"
           style="fill:#f3d495;fill-opacity:1;fill-rule:nonzero;stroke:none"
           id="path3278" /></g><g
         id="g3280"><path
           d="m 238.28352,98.42012 c 6.71819,1.64409 3.82668,-4.79077 14.28673,-2.89151 -23.44311,-14.74004 -18.17048,-0.02812 -14.28673,2.89151 z"
           style="fill:#df8020;fill-opacity:1;fill-rule:nonzero;stroke:none"
           id="path3282" /></g><g
         id="g3284"><path
           d="m 252.41614,100.6797 c 0.66931,1.83893 0.14699,3.71726 -1.16666,4.19538 -1.31366,0.47812 -2.92116,-0.625 -3.59047,-2.46393 -0.66931,-1.83895 -0.14699,-3.71727 1.16666,-4.19539 1.31364,-0.47812 2.92116,0.625 3.59047,2.46394 z"
           style="fill:#fffdd9;fill-opacity:1;fill-rule:nonzero;stroke:none"
           id="path3286" /></g><g
         id="g3288"><path
           d="m 251.69084,100.64217 c 0.3823,1.05033 0.26637,2.05676 -0.25889,2.24793 -0.52529,0.1912 -1.26101,-0.50527 -1.6433,-1.55561 -0.38228,-1.05033 -0.26635,-2.05676 0.25891,-2.24794 0.52527,-0.19118 1.261,0.50528 1.64328,1.55562 z"
           style="fill:#000000;fill-opacity:1;fill-rule:nonzero;stroke:none"
           id="path3290" /></g><g
         id="g3292"><path
           d="m 244.13998,102.86252 c 0.61205,1.68158 0.17086,3.38592 -0.98544,3.80678 -1.15629,0.42085 -2.58981,-0.60114 -3.20186,-2.28272 -0.61204,-1.68158 -0.17085,-3.38592 0.98545,-3.80678 1.15629,-0.42085 2.58981,0.60114 3.20185,2.28272 z"
           style="fill:#fffdd9;fill-opacity:1;fill-rule:nonzero;stroke:none"
           id="path3294" /></g><g
         id="g3296"><path
           d="m 243.51006,102.78986 c 0.34429,0.94594 0.28239,1.83689 -0.13828,1.99 -0.42067,0.15309 -1.04078,-0.48961 -1.38508,-1.43556 -0.3443,-0.94594 -0.2824,-1.8369 0.13827,-1.98999 0.42067,-0.15311 1.04079,0.48961 1.38509,1.43555 z"
           style="fill:#000000;fill-opacity:1;fill-rule:nonzero;stroke:none"
           id="path3298" /></g><g
         id="g3300"><path
           d="M 240.66464,89.15083 C 234.34311,87.93195 223.23123,75.3174 234.96681,64.0922 246.73056,52.86697 307.93166,60.37885 278.30885,96.91792 253.36397,84.36005 261.92476,92.94939 243.49907,85.04044 Z"
           style="fill:#ffffff;fill-opacity:1;fill-rule:nonzero;stroke:none"
           id="path3302" /></g><g
         id="g3304"><path
           d="M 240.66464,89.15083 C 234.34311,87.93195 223.23123,75.3174 234.96681,64.0922 246.73056,52.86697 307.93166,60.37885 278.30885,96.91792 251.71988,83.50967 261.92476,95.75569 241.31648,76.5363 Z"
           style="fill:#e61919;fill-opacity:1;fill-rule:nonzero;stroke:none"
           id="path3306" /></g><g
         id="g3308"><path
           d="m 267.02696,93.54456 c 0,1.8786 -1.52287,3.40147 -3.40147,3.40147 -1.87859,0 -3.40146,-1.52287 -3.40146,-3.40147 0,-1.87861 1.52287,-3.40148 3.40146,-3.40148 1.8786,0 3.40147,1.52287 3.40147,3.40148 z m -2.83484,-4.25228 c 0,1.8786 -1.52287,3.40148 -3.40147,3.40148 -1.8786,0 -3.40147,-1.52288 -3.40147,-3.40148 0,-1.8786 1.52287,-3.40147 3.40147,-3.40147 1.8786,0 3.40147,1.52287 3.40147,3.40147 z M 243.7828,86.45786 c 0,1.56564 -1.26919,2.83485 -2.83485,2.83485 -1.56564,0 -2.83484,-1.26921 -2.83484,-2.83485 0,-1.56566 1.2692,-2.83486 2.83484,-2.83486 1.56566,0 2.83485,1.2692 2.83485,2.83486 z m 1.27514,-4.25229 c 0,1.8786 -1.52288,3.40147 -3.40148,3.40147 -1.8786,0 -3.40147,-1.52287 -3.40147,-3.40147 0,-1.8786 1.52287,-3.40147 3.40147,-3.40147 1.8786,0 3.40148,1.52287 3.40148,3.40147 z m 0,-4.25183 c 0,1.8786 -1.52288,3.40147 -3.40148,3.40147 -1.8786,0 -3.40147,-1.52287 -3.40147,-3.40147 0,-1.87861 1.52287,-3.40148 3.40147,-3.40148 1.8786,0 3.40148,1.52287 3.40148,3.40148 z m 4.11038,-2.83487 c 0,2.19177 -1.77675,3.96852 -3.96852,3.96852 -2.19177,0 -3.96852,-1.77675 -3.96852,-3.96852 0,-2.19177 1.77675,-3.96853 3.96852,-3.96853 2.19177,0 3.96852,1.77676 3.96852,3.96853 z m 2.26782,2.83487 c 0,1.8786 -1.52287,3.40147 -3.40147,3.40147 -1.8786,0 -3.40147,-1.52287 -3.40147,-3.40147 0,-1.87861 1.52287,-3.40148 3.40147,-3.40148 1.8786,0 3.40147,1.52287 3.40147,3.40148 z m 2.83486,2.83483 c 0,1.87861 -1.52289,3.40148 -3.40148,3.40148 -1.8786,0 -3.40147,-1.52287 -3.40147,-3.40148 0,-1.87858 1.52287,-3.40147 3.40147,-3.40147 1.87859,0 3.40148,1.52289 3.40148,3.40147 z m 2.83441,2.83443 c 0,1.8786 -1.52288,3.40148 -3.40148,3.40148 -1.8786,0 -3.40147,-1.52288 -3.40147,-3.40148 0,-1.8786 1.52287,-3.40147 3.40147,-3.40147 1.8786,0 3.40148,1.52287 3.40148,3.40147 z m 2.83485,2.83486 c 0,1.8786 -1.52287,3.40147 -3.40147,3.40147 -1.8786,0 -3.40148,-1.52287 -3.40148,-3.40147 0,-1.87861 1.52288,-3.40148 3.40148,-3.40148 1.8786,0 3.40147,1.52287 3.40147,3.40148 z m 2.83443,5.66926 c 0,1.8786 -1.52287,3.40148 -3.40148,3.40148 -1.8786,0 -3.40147,-1.52288 -3.40147,-3.40148 0,-1.87858 1.52287,-3.40146 3.40147,-3.40146 1.87861,0 3.40148,1.52288 3.40148,3.40146 z m -4.25185,-1.4174 c 0,1.8786 -1.52287,3.40147 -3.40147,3.40147 -1.8786,0 -3.40147,-1.52287 -3.40147,-3.40147 0,-1.8786 1.52287,-3.40148 3.40147,-3.40148 1.8786,0 3.40147,1.52288 3.40147,3.40148 z m -4.25184,0 c 0,1.8786 -1.52289,3.40147 -3.40148,3.40147 -1.8786,0 -3.40147,-1.52287 -3.40147,-3.40147 0,-1.8786 1.52287,-3.40148 3.40147,-3.40148 1.87859,0 3.40148,1.52288 3.40148,3.40148 z m -2.83486,-1.41744 c 0,1.8786 -1.52287,3.40148 -3.40147,3.40148 -1.8786,0 -3.40147,-1.52288 -3.40147,-3.40148 0,-1.8786 1.52287,-3.40147 3.40147,-3.40147 1.8786,0 3.40147,1.52287 3.40147,3.40147 z m -2.83487,-1.41699 c 0,1.8786 -1.52287,3.40147 -3.40147,3.40147 -1.8786,0 -3.40148,-1.52287 -3.40148,-3.40147 0,-1.8786 1.52288,-3.40147 3.40148,-3.40147 1.8786,0 3.40147,1.52287 3.40147,3.40147 z m -1.98404,-0.85037 c 0,1.8786 -1.52287,3.40147 -3.40147,3.40147 -1.8786,0 -3.40147,-1.52287 -3.40147,-3.40147 0,-1.8786 1.52287,-3.40148 3.40147,-3.40148 1.8786,0 3.40147,1.52288 3.40147,3.40148 z m -5.66928,11.05523 c 0,0.93929 -0.76143,1.70073 -1.70073,1.70073 -0.9393,0 -1.70072,-0.76144 -1.70072,-1.70073 0,-0.9393 0.76142,-1.70074 1.70072,-1.70074 0.9393,0 1.70073,0.76144 1.70073,1.70074 z m 2.26781,-0.28375 c 0,0.9393 -0.76143,1.70073 -1.70073,1.70073 -0.9393,0 -1.70074,-0.76143 -1.70074,-1.70073 0,-0.9393 0.76144,-1.70073 1.70074,-1.70073 0.9393,0 1.70073,0.76143 1.70073,1.70073 z m 2.26779,-1.13367 c 0,0.93931 -0.76145,1.70073 -1.70075,1.70073 -0.9393,0 -1.70072,-0.76142 -1.70072,-1.70073 0,-0.9393 0.76142,-1.70074 1.70072,-1.70074 0.9393,0 1.70075,0.76144 1.70075,1.70074 z m 2.26737,-1.41743 c 0,0.9393 -0.76143,1.70073 -1.70073,1.70073 -0.9393,0 -1.70075,-0.76143 -1.70075,-1.70073 0,-0.9393 0.76145,-1.70074 1.70075,-1.70074 0.9393,0 1.70073,0.76144 1.70073,1.70074 z m 2.26778,-0.56705 c 0,0.9393 -0.76144,1.70073 -1.70074,1.70073 -0.93928,0 -1.70073,-0.76143 -1.70073,-1.70073 0,-0.9393 0.76145,-1.70074 1.70073,-1.70074 0.9393,0 1.70074,0.76144 1.70074,1.70074 z m 4.5356,-2.2678 c 0,1.8786 -1.52287,3.40147 -3.40147,3.40147 -1.8786,0 -3.40147,-1.52287 -3.40147,-3.40147 0,-1.8786 1.52287,-3.40148 3.40147,-3.40148 1.8786,0 3.40147,1.52288 3.40147,3.40148 z m -16.15745,5.10264 c 0,0.46965 -0.38071,0.85037 -0.85035,0.85037 -0.46966,0 -0.85038,-0.38072 -0.85038,-0.85037 0,-0.46965 0.38072,-0.85036 0.85038,-0.85036 0.46964,0 0.85035,0.38071 0.85035,0.85036 z m 20.12599,-4.53559 c 0,1.8786 -1.52287,3.40147 -3.40147,3.40147 -1.8786,0 -3.40147,-1.52287 -3.40147,-3.40147 0,-1.87861 1.52287,-3.40148 3.40147,-3.40148 1.8786,0 3.40147,1.52287 3.40147,3.40148 z"
           style="fill:#f2e6d9;fill-opacity:1;fill-rule:nonzero;stroke:none"
           id="path3310" /></g><g
         id="g3312"><path
           d="m 263.62549,93.54456 -22.67754,-7.0867 4.25185,-11.33899 z"
           style="fill:#f2e6d9;fill-opacity:1;fill-rule:nonzero;stroke:none"
           id="path3314" /></g><g
         id="g3316"><path
           d="m 238.96349,107.80273 c 4.53558,10.51674 11.5375,7.42711 19.5027,4.2804 15.90268,-6.32111 5.95301,-21.57196 14.99565,-25.42674 -0.25519,5.61262 2.77776,29.67903 -13.57824,34.38461 -8.53224,2.43778 -17.91528,0.28331 -20.92011,-13.23827 z"
           style="fill:#cc0000;fill-opacity:1;fill-rule:nonzero;stroke:none"
           id="path3318" /></g><g
         id="g3320"><path
           d="m 239.24722,105.81868 c -6.49153,16.04414 18.19861,12.89786 28.80011,0.73706 2.21114,-3.45857 0.68037,-6.06636 -1.58741,-5.47118 -3.82666,4.19562 -23.32937,19.87124 -27.2127,4.73412 z"
           style="fill:#f2e6d9;fill-opacity:1;fill-rule:nonzero;stroke:none"
           id="path3322" /></g><g
         id="g3324"><path
           d="m 276.94853,85.04044 c 0,2.66143 -2.15747,4.8189 -4.81891,4.8189 -2.66143,0 -4.81891,-2.15747 -4.81891,-4.8189 0,-2.66144 2.15748,-4.81891 4.81891,-4.81891 2.66144,0 4.81891,2.15747 4.81891,4.81891 z"
           style="fill:#f2e6d9;fill-opacity:1;fill-rule:nonzero;stroke:none"
           id="path3326" /></g></g><path
       d="m 341.78834,126.09478 c 1.77996,-0.11715 3.33391,-0.44357 4.48334,-0.94296 0.20645,-0.0893 0.33757,-0.13113 0.38499,-0.11998 0.14508,0.0251 0.87044,-0.3013 1.32241,-0.59701 0.3571,-0.23716 0.71978,-0.61379 0.8565,-0.88999 0.1088,-0.22041 0.1088,-0.22041 0.1088,-0.55519 0,-0.32361 -0.003,-0.34595 -0.0921,-0.53287 -0.31526,-0.66678 -1.14107,-1.33354 -2.48859,-2.00869 -0.53565,-0.26783 -0.82858,-0.39896 -1.67391,-0.74491 -0.86765,-0.35432 -1.5205,-0.65004 -2.19007,-0.99598 -3.59894,-1.85527 -6.8324,-4.64237 -9.63623,-8.30268 -2.75641,-3.59616 -4.65352,-7.3318 -5.81969,-11.46361 -0.47985,-1.70182 -0.57472,-2.22631 -0.70863,-3.96441 -0.17577,-2.22634 -0.21202,-3.59616 -0.19807,-7.22579 0.0223,-5.46537 0.0167,-6.6427 -0.0363,-7.37922 -0.14228,-1.94176 -0.32083,-3.34508 -0.8844,-6.93285 -0.15066,-0.9653 -0.34035,-2.19563 -0.41848,-2.73407 -0.28457,-1.95851 -0.60261,-3.46225 -1.07131,-5.07759 -1.59859,-5.52954 -4.42754,-10.09098 -8.08785,-13.03709 -0.17856,-0.14507 -0.32642,-0.26505 -0.32642,-0.26783 0,0 1.47864,-3.49293 3.28647,-7.75865 l 3.28649,-7.75587 10.58479,-0.01395 c 10.13841,-0.01395 10.59596,-0.01674 10.75497,-0.06695 0.42685,-0.12833 0.76444,-0.39058 0.9123,-0.70305 0.0976,-0.21204 0.15623,-0.51334 0.11438,-0.60539 -0.039,-0.0809 -0.73095,-1.049 -1.18569,-1.6572 -1.0462,-1.39772 -1.99478,-2.4858 -2.30166,-2.63922 -0.26503,-0.13391 -0.74489,-0.26226 -1.25544,-0.34038 -0.25666,-0.03626 -6.08751,-0.04182 -55.59111,-0.04182 -53.94227,0 -56.85211,0.0028 -59.10914,0.08367 -3.13301,0.11438 -4.95761,0.49103 -6.70964,1.39215 -4.10112,2.10917 -7.65822,6.96355 -8.39475,11.45525 -0.11997,0.73651 -0.14229,1.06015 -0.14229,2.0645 0.003,1.23592 0.0502,1.79669 0.34874,4.08717 0.12835,0.97646 0.22318,1.81621 0.30689,2.72014 0.0167,0.18413 0.0725,0.61656 0.12555,0.9625 0.26782,1.766 0.30409,2.83451 0.12274,3.7245 -0.0307,0.15343 -0.0614,0.28456 -0.067,0.29014 -0.008,0.0056 -0.0865,-0.02232 -0.17854,-0.06416 -0.81744,-0.36549 -2.15378,-0.23715 -3.43713,0.33199 -1.48142,0.65562 -2.4523,1.83574 -2.78989,3.38411 -0.0837,0.3878 -0.106,1.25824 -0.0391,1.60977 0.13391,0.73373 0.46871,1.35866 1.0183,1.91385 0.65564,0.664 1.4647,1.11038 2.483,1.37262 1.38377,0.35989 2.79825,0.24551 4.17644,-0.33199 2.31282,-0.96809 3.97838,-3.23904 4.45823,-6.07635 0.11718,-0.68631 0.13948,-1.05179 0.13671,-2.16495 -0.003,-1.73251 -0.14229,-3.21115 -0.55519,-5.90059 -0.41012,-2.66713 -0.49939,-3.99231 -0.37384,-5.45421 0.15344,-1.76601 0.64724,-3.14699 1.55117,-4.3271 1.64324,-2.151 2.98517,-3.41481 4.31873,-4.07044 0.91229,-0.44915 2.13705,-0.73652 3.69659,-0.86486 0.80349,-0.06694 1.88873,-0.0837 5.5407,-0.0837 3.05771,0 3.8584,0.0084 3.86955,0.03349 0.006,0.01952 1.39774,3.30042 3.0884,7.28994 1.69067,3.98953 3.0856,7.28158 3.09954,7.31508 0.0223,0.05856 -0.003,0.0809 -0.27619,0.26503 -1.72971,1.15779 -3.31159,2.62805 -4.53075,4.2127 -3.09677,4.02301 -4.31316,9.36005 -3.66032,16.07807 0.28176,2.92659 0.92344,6.17958 1.97802,10.04358 0.53008,1.94732 0.75048,3.43712 0.75048,5.10545 0,2.05615 -0.37105,3.75519 -1.18291,5.44864 -1.21359,2.51646 -3.1442,4.23223 -5.21987,4.63399 -1.50652,0.29014 -3.09956,-0.06975 -4.50845,-1.01831 -0.47427,-0.31805 -0.71698,-0.5217 -1.13826,-0.94298 -0.8537,-0.85649 -1.41167,-1.83016 -1.63766,-2.85404 -0.0837,-0.37383 -0.0893,-1.1857 -0.0139,-1.5428 0.14507,-0.67236 0.4659,-1.33356 0.99877,-2.05613 0.89276,-1.21082 2.0366,-1.68789 3.34506,-1.38659 0.61377,0.1395 1.40331,0.48545 2.09241,0.91509 0.16182,0.10322 0.29573,0.17297 0.3013,0.15903 0.014,-0.04186 -0.12833,-0.37943 -0.30687,-0.73374 -0.86487,-1.70741 -2.40767,-2.80383 -4.302,-3.05214 -0.4157,-0.0558 -1.34192,-0.03905 -1.74646,0.02789 -2.23189,0.37945 -4.12065,1.83576 -5.28962,4.07602 -1.00155,1.91944 -1.2917,4.14577 -0.81463,6.26328 0.16739,0.75326 0.44638,1.49258 0.87323,2.34349 1.06294,2.10357 2.56389,3.81935 4.39683,5.03015 1.94735,1.28336 4.24064,2.01709 6.87427,2.19842 0.6082,0.0419 2.27095,0.0168 2.85962,-0.0418 1.89433,-0.19251 3.66312,-0.60262 5.45421,-1.26381 2.81778,-1.04343 5.45979,-3.02982 8.4366,-6.3414 1.21359,-1.3503 2.13426,-2.4774 4.39683,-5.38446 1.91945,-2.46625 2.72852,-3.47898 3.54036,-4.42195 1.96688,-2.28771 3.54872,-3.7273 5.16408,-4.69259 2.99912,-1.79389 7.13092,-2.81219 12.35916,-3.04933 0.79511,-0.03627 3.16094,-0.03627 4.00347,0 3.04095,0.13112 6.47252,0.54959 8.29431,1.01551 3.87793,0.99321 8.24129,3.68542 10.46483,6.46135 0.5496,0.68631 1.33635,1.86087 2.10635,3.147 1.28055,2.13983 2.48857,4.53354 4.38848,8.68208 1.93339,4.21829 2.24864,4.89345 3.11071,6.61202 1.28334,2.56668 2.28491,4.31595 3.51804,6.13774 1.67393,2.4774 3.14699,4.10948 5.12779,5.68297 3.03259,2.40487 7.11699,4.49171 11.82629,6.04287 2.5667,0.84534 5.14455,1.48143 7.78376,1.91945 0.73931,0.12274 2.88475,0.42127 4.10113,0.56914 1.48979,0.18411 2.89588,0.31245 4.11507,0.37662 0.62771,0.0307 2.77871,0.0307 3.29205,-0.003 z M 310.1009,49.2253 c -0.10321,-0.05022 -0.438,-0.20367 -0.74489,-0.33758 -5.67181,-2.47742 -12.54329,-3.76913 -21.4402,-4.03138 -2.73967,-0.07811 -4.37175,-0.09764 -8.82997,-0.09764 -4.70094,0 -5.49327,0.01115 -8.2162,0.1116 -7.75584,0.29014 -14.552,1.0713 -19.54308,2.24864 -1.76319,0.41568 -3.71054,1.00156 -5.17523,1.55675 -0.28456,0.10879 -0.52171,0.18691 -0.53286,0.17576 -0.0307,-0.03627 -5.10549,-12.03554 -5.09433,-12.0467 0.006,-0.0056 16.90945,-0.0084 37.56292,-0.0056 l 37.55176,0.0084 -2.65039,6.2577 c -1.45631,3.43991 -2.66155,6.2549 -2.67549,6.2549 -0.014,0 -0.10881,-0.04184 -0.21204,-0.09484 z"
       style="fill:#604020;fill-opacity:1;fill-rule:nonzero;stroke:none"
       id="path3330" /></g></svg>
