<?xml version="1.0" encoding="UTF-8" standalone="no"?>
<!-- Created with Inkscape (http://www.inkscape.org/) -->

<svg
   xmlns:dc="http://purl.org/dc/elements/1.1/"
   xmlns:cc="http://creativecommons.org/ns#"
   xmlns:rdf="http://www.w3.org/1999/02/22-rdf-syntax-ns#"
   xmlns:svg="http://www.w3.org/2000/svg"
   xmlns="http://www.w3.org/2000/svg"
   xmlns:sodipodi="http://sodipodi.sourceforge.net/DTD/sodipodi-0.dtd"
   xmlns:inkscape="http://www.inkscape.org/namespaces/inkscape"
   version="1.1"
   id="svg2"
   xml:space="preserve"
   width="76.23333"
   height="86.006668"
   viewBox="0 0 76.23333 86.006668"
   sodipodi:docname="viking_back.svg"
   inkscape:version="0.92.2 5c3e80d, 2017-08-06"><metadata
     id="metadata8"><rdf:RDF><cc:Work
         rdf:about=""><dc:format>image/svg+xml</dc:format><dc:type
           rdf:resource="http://purl.org/dc/dcmitype/StillImage" /><dc:title></dc:title></cc:Work></rdf:RDF></metadata><defs
     id="defs6" /><sodipodi:namedview
     pagecolor="#ffffff"
     bordercolor="#666666"
     borderopacity="1"
     objecttolerance="10"
     gridtolerance="10"
     guidetolerance="10"
     inkscape:pageopacity="0"
     inkscape:pageshadow="2"
     inkscape:window-width="640"
     inkscape:window-height="480"
     id="namedview4"
     showgrid="false"
     inkscape:snap-global="false"
     inkscape:zoom="6.4633433"
     inkscape:cx="38.116665"
     inkscape:cy="41.842944"
     inkscape:current-layer="g10" /><g
     id="g10"
     inkscape:groupmode="layer"
     inkscape:label="viking_back"
     transform="matrix(1.3333333,0,0,-1.3333333,0,86.006667)"><path
       inkscape:connector-curvature="0"
       id="path74"
       style="fill:#f2e6d9;fill-opacity:1;fill-rule:nonzero;stroke:none"
       d="m 29.286764,61.634679 c 3.84093,-7.28784 -0.54457,-9.99768 -1.80584,-10.93629 -1.08568,-0.62891 -1.17348,-1.0939 -1.3945,-2.05499 0,-1.63543 1.26429,-2.96202 2.82316,-2.96202 0.91008,0.14447 1.74919,0.29197 2.52862,1.18472 0,0 7.1265,10.52798 -2.15144,14.76858 z" /><path
       inkscape:connector-curvature="0"
       id="path42"
       style="fill:#df8020;fill-opacity:1;fill-rule:nonzero;stroke:none"
       d="m 9.15596,38.89149 c 6.71817,1.64408 3.82667,-4.79078 14.28672,-2.89151 C -4.5e-4,21.25994 5.2722,35.97185 9.15596,38.89149 Z" /><path
       inkscape:connector-curvature="0"
       id="path30"
       style="fill:#f2e6d9;fill-opacity:1;fill-rule:nonzero;stroke:none"
       d="m 12.701602,60.227399 c -2.526958,-7.842236 2.258801,-9.757643 3.660063,-10.465387 1.180707,-0.432746 1.344176,-0.876231 1.729641,-1.78148 0.281759,-1.614052 -0.735577,-3.138306 -2.274199,-3.406898 -0.921367,-0.01418 -1.770887,-0.0097 -2.691795,0.733196 0,0 -8.8307736,9.145602 -0.42371,14.920569 z" /><path
       inkscape:connector-curvature="0"
       id="path34"
       style="fill:#edd425;fill-opacity:1;fill-rule:nonzero;stroke:none"
       d="M 12.18892,29.6222 C 5.21554,28.40331 -5.89633,15.78876 5.83925,4.56356 17.603,-6.66164 78.80409,0.85021 49.18129,37.38929 24.23639,23.98104 32.79719,36.25518 12.18892,29.6222 Z" /><path
       inkscape:connector-curvature="0"
       id="path38"
       style="fill:#edd425;fill-opacity:1;fill-rule:nonzero;stroke:none"
       d="m 37.33233,39.6852 c 0,9.78481 -6.34555,17.71675 -14.1734,17.71675 -7.82785,0 -14.17338,-7.93194 -14.17338,-17.71675 0,-9.78482 6.34553,-17.71675 14.17338,-17.71675 7.82785,0 14.1734,7.93193 14.1734,17.71675 z" /><path
       inkscape:connector-curvature="0"
       id="path62"
       style="fill:#808080;fill-opacity:1;fill-rule:nonzero;stroke:none;stroke-width:1"
       d="M 8.6522964,43.59302 C 10.037408,49.29171 13.70653,57.880287 23.499837,57.535079 33.127713,57.196598 37.222251,47.99986 37.271052,44.728356 33.165231,46.420373 17.898458,47.909402 8.6522964,43.59302 Z" /><path
       inkscape:connector-curvature="0"
       id="path66"
       style="fill:#595959;fill-opacity:1;fill-rule:nonzero;stroke:none;stroke-width:1"
       d="m 23.952322,57.650243 c 2.348514,-0.776522 3.755884,-3.092855 4.759616,-5.247147 0.595449,-1.337178 1.028624,-2.745022 1.337292,-4.177781 2.253169,-0.169861 4.500974,-0.449708 6.71747,-0.893809 0.660086,-0.744739 1.332697,-3.475303 -0.357705,-3.020983 -1.954654,0.256464 -3.915076,0.490755 -5.883069,0.618348 0,0 0,0 -2.114133,0.108966 -6.841151,0.241255 -13.071629,-0.243012 -19.4770841,-2.791262 -0.5234839,0.839777 -0.7801615,1.698198 -0.3852946,2.541382 0.4223243,0.982533 1.5609387,1.082091 2.4197257,1.465437 5.406017,1.857038 11.180813,2.291442 16.852514,2.096824 -0.910128,3.554706 -2.731249,7.065082 -5.773774,9.164307 0.593055,0.279387 1.279912,0.310556 1.904442,0.135718 z" /><path
       inkscape:connector-curvature="0"
       id="path70"
       style="fill:#bfbfbf;fill-opacity:1;fill-rule:nonzero;stroke:none;stroke-width:1"
       d="m 35.610689,45.960846 c 0.05904,0.226956 0.28731,0.362139 0.509852,0.301914 0.222531,-0.06022 0.355051,-0.293044 0.296007,-0.52 -0.05905,-0.226986 -0.287304,-0.362152 -0.509835,-0.301929 -0.222542,0.06023 -0.355076,0.293029 -0.296024,0.520015 z m -2.327769,0.336818 c 0.05904,0.226976 0.287303,0.362152 0.509845,0.301926 0.222531,-0.06022 0.355073,-0.293039 0.296025,-0.520014 -0.05904,-0.226967 -0.287324,-0.362147 -0.509855,-0.301924 -0.222542,0.06023 -0.355062,0.293046 -0.296015,0.520012 z m -2.725484,0.356302 c 0.05905,0.226976 0.287323,0.362146 0.509855,0.301924 0.222541,-0.06023 0.355063,-0.293037 0.296015,-0.520013 -0.05904,-0.226966 -0.287304,-0.362151 -0.509845,-0.301926 -0.222532,0.06022 -0.35507,0.293049 -0.296025,0.520015 z m -3.038234,0.147403 c 0.05905,0.226976 0.28731,0.362139 0.509842,0.301916 0.222532,-0.06022 0.355076,-0.293029 0.296028,-0.520005 -0.05904,-0.226966 -0.287324,-0.362146 -0.509855,-0.301923 -0.222532,0.06022 -0.355062,0.293046 -0.296015,0.520012 z m -3.107954,-0.0092 c 0.05904,0.226975 0.287304,0.362151 0.509846,0.301926 0.222531,-0.06022 0.355072,-0.293039 0.296024,-0.520015 -0.05904,-0.226966 -0.287323,-0.362146 -0.509855,-0.301924 -0.222541,0.06023 -0.355061,0.293046 -0.296015,0.520013 z m -3.000662,-0.03863 c 0.05904,0.226957 0.287311,0.362139 0.509862,0.301911 0.222522,-0.06022 0.355061,-0.293045 0.296017,-0.520002 -0.05905,-0.226986 -0.287322,-0.362146 -0.509845,-0.301926 -0.22255,0.06023 -0.355085,0.293032 -0.296034,0.520017 z m -2.828207,-0.261187 c 0.05904,0.226956 0.28733,0.362134 0.509862,0.301911 0.222541,-0.06023 0.355061,-0.293046 0.296018,-0.520002 -0.05905,-0.226986 -0.287305,-0.362152 -0.509845,-0.301926 -0.222533,0.06022 -0.355086,0.293031 -0.296035,0.520017 z M 16.037024,46.21368 c 0.05904,0.226956 0.28732,0.362136 0.509842,0.301916 0.222551,-0.06023 0.35507,-0.293048 0.296027,-0.520005 -0.05905,-0.226985 -0.287304,-0.362151 -0.509854,-0.301923 -0.222523,0.06022 -0.355067,0.293026 -0.296015,0.520012 z m -2.758333,-0.544152 c 0.05905,0.226985 0.287323,0.362146 0.509845,0.301926 0.222551,-0.06023 0.355076,-0.293029 0.296025,-0.520015 -0.05904,-0.226957 -0.287302,-0.362142 -0.509852,-0.301914 -0.222523,0.06022 -0.355062,0.293046 -0.296018,0.520003 z m -2.598677,-0.704559 c 0.05904,0.226956 0.287319,0.362126 0.50984,0.301906 0.222551,-0.06023 0.355074,-0.293039 0.29603,-0.519995 -0.05905,-0.226986 -0.287304,-0.362151 -0.509855,-0.301924 -0.222522,0.06022 -0.355065,0.293027 -0.296015,0.520013 z m 17.668926,4.251673 c 0.05905,0.226976 0.287311,0.362139 0.509834,0.301919 0.222551,-0.06023 0.355075,-0.293029 0.296027,-0.520005 -0.05904,-0.226966 -0.287304,-0.362151 -0.509855,-0.301924 -0.222522,0.06022 -0.355052,0.293044 -0.296006,0.52001 z m -0.807244,2.535206 c 0.05904,0.226967 0.287302,0.362142 0.509852,0.301914 0.222523,-0.06022 0.355055,-0.293033 0.296009,-0.52 -0.05905,-0.226985 -0.287314,-0.362148 -0.509836,-0.301928 -0.222551,0.06023 -0.355076,0.293029 -0.296025,0.520014 z m -1.167991,2.251541 c 0.05904,0.226966 0.287299,0.362132 0.50984,0.301907 0.222533,-0.06022 0.355077,-0.293029 0.29603,-0.519995 -0.05904,-0.226976 -0.28732,-0.362137 -0.509852,-0.301914 -0.222541,0.06022 -0.355066,0.293026 -0.296018,0.520002 z M 25.0699,55.734551 c 0.05904,0.226976 0.287311,0.362139 0.509843,0.301916 0.222541,-0.06022 0.355066,-0.293026 0.296018,-0.520002 -0.05904,-0.226966 -0.287305,-0.362151 -0.509845,-0.301926 -0.222533,0.06022 -0.355062,0.293046 -0.296016,0.520012 z m -1.45006,1.389905 c 0.05905,0.226985 0.287314,0.362148 0.509855,0.301923 0.222532,-0.06022 0.355075,-0.293029 0.296024,-0.520015 -0.05904,-0.226956 -0.28732,-0.362136 -0.509852,-0.301913 -0.222541,0.06023 -0.35507,0.293048 -0.296027,0.520005 z M 8.6867688,44.15561 c 0.059046,0.226966 0.287304,0.362151 0.5098451,0.301926 0.2225319,-0.06022 0.3550707,-0.293049 0.2960247,-0.520015 -0.059048,-0.226976 -0.2873204,-0.362137 -0.5098523,-0.301914 -0.2225411,0.06022 -0.3550661,0.293027 -0.2960175,0.520003 z" /></g></svg>